# xmcd
#
# Track frame offsets: 
#        150
#        14565
#        40865
#        59260
#        83510
#        101940
#        122625
#        140620
#        155600
#        169625
#        184035
#
# Disc length: 2683 seconds
#
# Revision: 0
# Processed by: cddbd v1.5.2PL0 Copyright (c) Steve Scherf et al.
# Submitted via: ExactAudioCopy v0.95b3
#
DISCID=8e0a790b
DTITLE=Brad Webb - Brad Webb and Friends III
DYEAR=1900
DGENRE=Blues
TTITLE0=Good Woman Blues
TTITLE1=Gonna Have Some Fun
TTITLE2=Thought It Was Love
TTITLE3=The Best Is Yet To Come
TTITLE4=Live It Down
TTITLE5=Sleeping With One-Eye Open
TTITLE6=Can't Keep Up
TTITLE7=Thank The Lord
TTITLE8=Can't Get Down
TTITLE9=You Make Me Feel Good
TTITLE10=Photograph
EXTD=
EXTT0=
EXTT1=
EXTT2=
EXTT3=
EXTT4=
EXTT5=
EXTT6=
EXTT7=
EXTT8=
EXTT9=
EXTT10=
PLAYORDER=
